<?xml version="1.0" encoding="UTF-8"?>
<!DOCTYPE svg PUBLIC "-//W3C//DTD SVG 1.1//EN" "http://www.w3.org/Graphics/SVG/1.1/DTD/svg11.dtd">
<!-- Creator: CorelDRAW -->
<svg xmlns="http://www.w3.org/2000/svg" xml:space="preserve" width="64.3534mm" height="102.585mm" version="1.1" style="shape-rendering:geometricPrecision; text-rendering:geometricPrecision; image-rendering:optimizeQuality; fill-rule:evenodd; clip-rule:evenodd"
viewBox="0 0 6435 10259"
 xmlns:xlink="http://www.w3.org/1999/xlink">
 <defs>
  <style type="text/css">
   <![CDATA[
    .fil0 {fill:transparent;fill-rule:nonzero}
    .fil5 {fill:#FF9999;fill-rule:nonzero}
    .fil3 {fill:#FF9900;fill-rule:nonzero}
    .fil8 {fill:#D76767;fill-rule:nonzero}
    .fil1 {fill:#C24D4D;fill-rule:nonzero}
    .fil9 {fill:#AE3434;fill-rule:nonzero}
    .fil2 {fill:#FF6600;fill-rule:nonzero}
    .fil7 {fill:#E6E6FF;fill-rule:nonzero}
    .fil6 {fill:#B8B8D9;fill-rule:nonzero}
    .fil4 {fill:#6A9F93;fill-rule:nonzero}
    .fil10 {fill:black;fill-rule:nonzero}
    .fil11 {fill:white;fill-rule:nonzero}
   ]]>
  </style>
 </defs>
 <g id="Layer_x0020_1">
  <metadata id="CorelCorpID_0Corel-Layer"/>
  <g id="vc008217.ai">
   <g>
    <g>
     <path class="fil0" d="M3364 46c-53,-52 -60,-52 -178,-37 -117,15 -159,64 -238,129 -80,64 -538,779 -613,972 -76,193 7,318 7,318l-552 470c0,0 -103,117 -125,173 -23,57 19,137 19,137 0,0 -53,-34 -345,68 -291,102 -579,424 -579,424 0,0 -151,-38 -208,-12 -57,27 -208,235 -208,300 0,64 64,117 64,117 0,0 -254,363 -333,602 -79,238 -83,806 -68,999 15,193 170,416 261,492 91,76 136,128 212,102 76,-26 102,-45 106,-174 4,-129 26,-549 76,-685 49,-136 208,-515 367,-738l1298 984c0,0 -129,257 -136,530 -8,272 166,503 253,583 88,79 205,128 205,128l-15 178c0,0 -356,-136 -772,-60 -417,75 -784,257 -973,397 -189,140 -447,477 -500,689 -53,212 -22,526 95,696 117,171 511,250 700,246 189,-3 375,-49 375,-49 0,0 -212,227 -269,397 -57,171 -68,224 -163,307 -94,84 -333,197 -378,239 -46,41 -99,110 -61,223 38,113 136,201 175,257 37,57 1366,757 1366,757 0,0 117,57 215,53 99,-4 178,-56 186,-151 7,-95 -53,-238 -53,-238 0,0 -470,-791 -477,-814 -8,-23 38,-117 64,-129 27,-11 720,-352 818,-454 98,-102 189,-284 189,-284 0,0 231,-76 269,-151 38,-76 -34,-197 -34,-197l-65 -450 57 -20 356 197c0,0 30,163 68,227 38,65 144,114 144,114 0,0 -72,220 -19,439 53,219 223,420 371,556 147,136 250,246 318,379 68,132 272,454 337,515 64,60 155,52 231,22 75,-30 151,-98 166,-128 15,-31 1026,-1079 1026,-1079 0,0 57,-121 34,-193 -23,-72 -155,-106 -178,-114 -23,-7 -216,4 -216,4l-1006 129c0,0 -103,-16 -103,-34 0,-19 -287,-651 -287,-651 0,0 90,-99 94,-209 4,-109 -136,-193 -136,-193 0,0 61,-140 49,-215 -11,-76 -166,-239 -185,-318 -19,-80 -57,-318 -57,-318 0,0 379,310 432,333 52,23 158,-57 200,-99 42,-41 152,-219 148,-268 -4,-49 -799,-670 -799,-670 0,0 19,-152 38,-197 19,-45 45,-87 49,-163 4,-75 -94,-200 -94,-200 0,0 117,-235 -12,-345 -128,-110 -265,-26 -265,-26 0,0 -45,-99 -132,-208 -87,-110 -273,-227 -273,-227l30 -46c0,0 220,38 330,-102 110,-140 94,-242 94,-242 0,0 330,98 587,-99 257,-196 311,-594 299,-900 -11,-307 -265,-727 -344,-841 -80,-113 -454,-325 -454,-325 0,0 68,-84 72,-118 3,-34 -125,-189 -201,-253 -76,-64 -155,-42 -182,-31 -26,12 -193,91 -193,91 0,0 76,-170 95,-253 19,-83 57,-212 98,-265 42,-53 201,-79 201,-79 0,0 223,147 344,128 121,-19 250,-178 292,-231 41,-53 162,-113 196,-162 34,-50 65,-110 34,-160 -30,-49 -102,-37 -174,-56 -72,-19 -246,-4 -344,15 -98,19 -205,94 -337,136 -132,42 -276,30 -446,163 -171,132 -175,238 -193,299 -19,61 -61,280 -61,280 0,0 -114,-189 -227,-235 -114,-45 -296,-15 -337,4 -42,19 -254,129 -254,129 0,0 -3,-42 15,-87 19,-46 137,-239 137,-239 0,0 287,-72 390,-144 102,-72 136,-287 162,-378 27,-91 38,-383 38,-383z"/>
     <path class="fil1" d="M4144 811c0,0 49,61 87,72l261 57 375 -345c0,0 -174,-18 -231,0l-492 216z"/>
     <path class="fil1" d="M2675 811c0,0 34,65 118,27l295 -178 151 -507 -117 41 -447 617z"/>
     <path class="fil2" d="M1835 2200l208 402 64 355 -56 216 -178 246 113 95 398 -421 1677 -1343 -65 -125 -291 106 -257 -76c-197,-110 -402,-219 -599,-329l-601 367 -405 367 -8 140z"/>
     <path class="fil3" d="M3368 1845l-102 37 -189 -314c0,0 -80,-136 -303,-151l166 -106 212 11 284 318 19 125 -87 80z"/>
     <polygon class="fil4" points="3792,5807 4859,6663 4965,6496 3815,5565 "/>
     <path class="fil1" d="M4178 1990l-276 -128 -508 276 -1055 999 -4 201 208 401 473 201 87 193 -7 287 -337 125 -273 216 -106 288 42 367 178 276 185 110 0 461 -178 -60 -412 -64 -750 144 -560 340 -306 435 -57 383 170 272 239 148c578,-263 1165,-528 1744,-791l288 723 -246 -8 -859 201 -174 155 -276 552 -489 360 -23 95 519 423 1018 580c0,0 114,34 57,-99l-613 -1059 68 -171 893 -488 155 -178 42 -102 231 -91 -49 -102 -72 -655 181 -144 84 11 124 152 447 280 -7 163 189 159 -27 375 121 314 371 431 436 685 87 15 1150 -1124c0,0 38,-19 23,-49 -15,-30 -148,-11 -148,-11l-1287 162 -431 -938 132 -91 -166 -174 57 -193 -220 -489 -26 -609 -311 -337 -87 27 38 431 231 704 -102 193 -401 -340 94 -334 -45 -628 375 -136 143 79 76 -79 65 -235 -91 -242 34 -219 -84 -8 -151 30 -197 -310 -280 -216 -185 -68 64 -234 265 52 238 -64 57 -95 -7 -242 340 30 291 -102 190 -223 53 -481 -132 -517 -330 -387 -208 -190z"/>
     <polygon class="fil4" points="499,2961 1021,3484 3482,5474 3550,5209 1150,3241 696,2832 575,2817 "/>
     <path class="fil5" d="M3300 3633l233 -6 187 275c0,0 34,77 6,113l-220 -72 -206 -310z"/>
     <path class="fil6" d="M211 4895c0,0 190,402 227,318l16 -113 0 -417 181 -749 470 -598 620 -462 356 -106 -23 -136 -174 -280 -280 22 -447 182 -386 326 -363 462 -227 567 -46 666 76 318z"/>
     <path class="fil7" d="M1884 2420c0,0 -643,83 -1014,545 0,0 711,-477 1151,-379l-137 -166z"/>
     <path class="fil7" d="M355 5054c0,0 -159,-734 76,-1150 235,-417 454,-455 454,-455 0,0 -401,485 -484,894 -84,408 -46,711 -46,711z"/>
     <path class="fil3" d="M3042 1810c-18,0 -98,-68 -268,-49 -171,19 -360,277 -330,254 31,-23 292,-151 356,-144 65,7 284,106 318,76 34,-30 -76,-137 -76,-137z"/>
     <path class="fil8" d="M4352 2416c-95,-21 -136,19 -95,102 42,84 243,322 296,454 53,133 60,303 102,269 41,-34 61,-166 15,-341 -45,-173 -182,-454 -318,-484z"/>
     <path class="fil8" d="M2978 2787c-127,37 -280,76 -208,106 72,30 204,-38 246,-19 41,19 178,76 193,34 15,-41 -61,-170 -231,-121z"/>
     <path class="fil8" d="M3493 4680c-53,11 -64,109 -8,143 57,34 277,99 239,19 -38,-79 -231,-162 -231,-162z"/>
     <path class="fil8" d="M3641 5277c-20,17 -31,27 3,80 34,53 91,45 99,8 7,-38 -76,-110 -102,-88z"/>
     <path class="fil8" d="M3803 5463c-34,23 -7,87 46,76 53,-12 94,-46 57,-72 -39,-27 -103,-4 -103,-4z"/>
     <path class="fil8" d="M2444 6299c0,0 -612,-101 -980,144 -23,16 -83,84 -60,189 22,107 257,-109 370,-147 114,-38 405,-136 534,-125 129,11 208,15 216,-4 8,-19 -80,-57 -80,-57z"/>
     <path class="fil8" d="M1085 6636c-105,76 -336,284 -385,440 -50,155 -23,155 26,102 49,-53 276,-269 337,-318 61,-49 140,-65 148,-103 7,-37 22,-140 -23,-147 -46,-8 -103,26 -103,26z"/>
     <path class="fil8" d="M2971 7833c-43,15 -80,26 -42,60 38,34 72,53 110,38 38,-15 -15,-117 -68,-98z"/>
     <path class="fil8" d="M4242 7503c-34,19 -170,114 -125,144 46,30 83,-8 137,-34 53,-27 162,-45 136,-76 -27,-30 -148,-34 -148,-34z"/>
     <path class="fil8" d="M2683 7958c-223,15 -795,113 -867,215 -72,102 -182,307 -30,223 151,-83 897,-438 897,-438z"/>
     <path class="fil8" d="M5722 8635c-117,19 -511,41 -594,76 -83,34 -231,140 -185,140 45,0 310,-54 442,-91 133,-38 561,-99 515,-125 -45,-27 -178,0 -178,0z"/>
     <path class="fil9" d="M3099 4343c0,0 53,-19 106,-12 53,8 106,91 106,91l91 -235 -394 -226 106 234 -15 148z"/>
     <polygon class="fil9" points="2494,5554 2547,5501 2645,5558 2721,5789 2736,5437 2372,5281 "/>
     <polygon class="fil9" points="3042,5902 3129,5721 3277,5652 3466,5554 2940,5489 "/>
     <path class="fil9" d="M3913 6356c0,0 15,-132 91,-151 75,-19 163,4 163,4l37 -103 -317 -291 -88 19 35 223 79 299z"/>
     <path class="fil9" d="M3849 7064c0,0 -137,23 -175,72 -37,49 20,223 20,223l-254 -212 -79 -68 208 -276 280 261z"/>
     <path class="fil9" d="M4383 7768l-129 11c0,0 34,125 125,201 90,76 170,-38 170,-38l-106 -216 -60 42z"/>
     <path class="fil9" d="M2917 7961c0,0 -370,246 -348,310 23,65 284,53 284,53l265 -265 -201 -98z"/>
     <path class="fil9" d="M817 7814c0,0 288,-19 424,-99 136,-80 280,-159 257,-208 -22,-49 -181,-299 -201,-394 -18,-94 12,-242 12,-242l288 492 102 102c0,0 329,-98 503,-212 174,-113 307,-401 307,-401l147 205 0 52 -136 103 -181 257 -379 254 -390 143 -424 35 -329 -87z"/>
     <g>
      <path class="fil10" d="M2801 2047c-41,-101 -57,-168 -110,-280 -28,-58 -104,-251 -178,-421 -38,-74 -3,-138 25,-201 26,-59 46,-96 46,-96 0,-1 76,-150 177,-306 101,-158 218,-319 262,-374 75,-99 100,-156 184,-228 -109,16 -183,72 -259,172 -42,51 -165,222 -266,379 -103,160 -181,314 -181,314 1,1 -20,38 -48,100 -14,30 -33,67 -44,116 -14,48 -4,115 17,159 75,174 149,361 181,425 55,116 105,176 194,241z"/>
      <path class="fil10" d="M2743 852c56,4 90,5 141,-20 27,-13 113,-51 185,-112 72,-60 108,-147 106,-146 16,-2 67,-311 87,-356 17,-48 15,-79 17,-134 -51,21 -83,47 -105,104 -28,68 -73,362 -86,352 1,1 -23,61 -80,109 -57,48 -139,86 -165,100 -50,25 -73,54 -100,103z"/>
      <path class="fil10" d="M3475 1677c65,-57 108,-101 147,-194 24,-47 78,-211 108,-350 27,-148 129,-189 134,-191 -3,-4 110,-47 258,-87 143,-53 288,-115 338,-134 91,-37 137,-72 203,-131 -87,3 -145,9 -237,45 -50,18 -200,82 -333,131 -136,36 -274,88 -272,93 1,2 -35,13 -81,56 -50,44 -80,121 -100,193 -33,149 -81,289 -104,339 -36,89 -48,143 -61,230z"/>
      <path class="fil10" d="M4178 852c33,36 49,58 94,73 25,6 95,36 180,39 40,4 93,-13 117,-38 23,-20 32,-33 33,-33 -1,3 45,-59 81,-97 52,-46 109,-91 130,-107 36,-29 48,-59 60,-106 -49,1 -79,4 -117,32 -20,15 -82,64 -134,110 -60,63 -87,106 -91,107 0,-1 -10,12 -23,24 -11,9 -26,16 -55,15 -56,-1 -129,-29 -153,-35 -44,-13 -79,-6 -122,16z"/>
      <path class="fil10" d="M1859 3452c100,-91 168,-155 246,-300 22,-35 60,-140 47,-250 -10,-111 -30,-225 -17,-338 21,-228 117,-419 116,-418 1,2 78,-199 255,-342 84,-71 193,-120 288,-133 95,-16 172,7 205,20 124,55 182,134 287,218 -58,-117 -85,-224 -252,-305 -45,-18 -140,-44 -254,-25 -113,16 -237,72 -334,153 -196,160 -279,379 -280,375 1,0 -101,201 -125,448 -14,124 8,256 17,353 10,101 -16,164 -36,202 -71,135 -111,217 -163,342z"/>
      <path class="fil10" d="M2069 2670c-28,-141 -79,-230 -144,-374 -13,-39 -58,-120 -16,-196 43,-84 151,-158 246,-245 179,-168 367,-289 367,-288 0,1 185,-127 415,-204 114,-43 215,-20 277,68 74,82 124,153 146,189 40,64 58,116 41,150 -24,40 -82,74 -136,117 68,-19 128,-21 189,-75 65,-69 29,-168 -14,-241 -25,-41 -81,-119 -155,-201 -36,-44 -91,-97 -167,-114 -75,-18 -147,-2 -210,18 -245,82 -436,216 -437,214 1,0 -195,125 -380,298 -86,82 -203,156 -265,271 -33,57 -34,132 -21,175 11,46 25,80 35,102 74,160 148,220 229,336z"/>
      <path class="fil10" d="M3424 1612c16,40 21,62 51,82 16,9 63,44 120,70 64,29 130,14 127,14 10,8 199,-68 230,-82 32,-13 43,-33 66,-69 -36,-22 -64,-31 -99,-18 -42,17 -216,87 -212,77 0,0 -38,9 -74,-8 -42,-18 -91,-53 -108,-63 -31,-19 -62,-18 -101,-3z"/>
      <path class="fil10" d="M4094 1729l-2 -2 -9 -9c-22,-21 -46,-45 -72,-70 12,30 24,57 36,83l-12 5 -42 18c-57,24 -117,48 -194,85 -87,30 -331,187 -521,352 -195,163 -362,321 -363,320 6,5 -697,600 -786,781 -50,66 -89,113 -130,158 -30,22 -7,36 -43,12 -28,-18 -62,-32 -97,-39 30,21 52,44 70,68 9,10 16,34 55,36 31,-4 44,-16 59,-24 54,-36 108,-86 160,-154 77,-165 780,-764 774,-769 1,1 169,-157 361,-317 193,-165 414,-309 502,-340 75,-37 135,-71 187,-110 13,-9 25,-19 37,-30l18 -16 5 -4 1 -1 1 -1 0 0 0 0c10,-64 3,-18 5,-32z"/>
      <path class="fil10" d="M2316 3184c-21,116 -28,204 26,340 17,35 50,110 117,183 65,74 167,136 263,177 198,77 361,143 357,149 4,-8 146,101 337,203 96,48 214,81 316,66 100,-11 175,-52 210,-78 131,-98 63,-312 -12,-398 15,119 46,252 -43,323 -25,18 -84,51 -166,60 -80,12 -177,-14 -264,-57 -171,-91 -328,-207 -333,-201 3,-6 -180,-81 -364,-153 -193,-67 -311,-244 -333,-311 -48,-119 -73,-191 -111,-303z"/>
      <path class="fil10" d="M447 5230c26,-151 40,-251 52,-427 7,-96 38,-383 129,-631 85,-249 223,-446 222,-445 -1,0 130,-202 329,-375 197,-174 439,-337 522,-381 153,-85 237,-136 373,-207 -152,13 -259,38 -420,127 -89,46 -334,211 -538,392 -207,179 -345,392 -343,392 0,-1 -145,206 -234,466 -94,259 -126,557 -133,654 -11,182 7,286 41,435z"/>
      <path class="fil10" d="M351 5159c-67,-167 -91,-281 -126,-484 -21,-109 -42,-452 28,-757 58,-308 212,-549 211,-550 -1,1 140,-248 359,-472 212,-231 511,-399 617,-431 192,-67 305,-97 485,-99 -170,-57 -311,-61 -519,12 -115,35 -431,213 -650,453 -228,232 -374,491 -373,491 2,-2 -161,255 -221,576 -74,318 -52,675 -29,791 38,215 100,335 218,470z"/>
      <path class="fil10" d="M622 3030c-8,-13 -71,-52 -70,-80 0,-15 68,-106 76,-102 20,-2 71,42 84,49l59 -61c-16,-5 -72,-60 -144,-63 -87,8 -105,84 -105,76 0,2 -53,51 -53,116 2,64 66,100 74,114l79 -49z"/>
      <path class="fil10" d="M1196 3319c149,123 1125,964 1125,964 0,0 747,614 897,736 138,112 226,164 361,236 -97,-118 -165,-194 -302,-308 -149,-123 -897,-736 -897,-736 0,0 -1005,-816 -1141,-952l-43 60z"/>
      <path class="fil10" d="M1004 3497c149,123 1204,981 1204,981 0,0 748,614 897,736 139,113 227,165 361,236 -96,-118 -164,-194 -302,-308 -148,-123 -897,-736 -897,-736 0,0 -1069,-848 -1233,-951l-30 42z"/>
      <path class="fil10" d="M3444 5688c45,-58 91,-268 111,-346 12,-36 39,-183 109,-232 72,-42 183,22 178,16 -9,-4 416,191 390,279 18,60 24,104 36,177 44,-55 79,-109 52,-206 -5,-60 -118,-179 -231,-228 -107,-57 -206,-106 -209,-107 0,0 -27,-12 -72,-26 -44,-12 -121,-29 -194,16 -129,104 -130,250 -149,288 -19,81 -33,296 -21,369z"/>
      <path class="fil10" d="M3684 5282c41,-15 32,-28 49,-41 8,-8 51,-53 104,-21 46,29 85,42 84,42 2,0 184,85 210,111 27,23 86,42 137,117 4,-44 -30,-80 -62,-107 -34,-35 -218,-143 -217,-142 -1,0 -41,-26 -94,-58 -26,-16 -59,-34 -98,-37 -41,-4 -74,16 -85,25 -42,36 -38,69 -28,111z"/>
      <path class="fil10" d="M3783 5407c39,20 74,-1 105,-4 17,-3 138,33 179,48 42,14 73,60 73,60 1,-1 43,38 58,81 16,43 -10,93 -11,109l-56 69 60 64c28,-19 62,-109 65,-129 1,-21 26,-83 4,-143 -20,-61 -69,-98 -70,-96 0,1 -50,-50 -114,-70 -62,-24 -204,-70 -225,-65 -41,5 -48,40 -68,76z"/>
      <path class="fil10" d="M3888 5123c37,16 62,21 92,8 32,-19 194,-83 185,-71 1,0 12,-4 17,16 6,26 -12,78 -18,91 -11,28 -4,49 6,88 40,-7 65,-19 80,-52 7,-19 35,-72 24,-146 -12,-92 -126,-96 -117,-90 -14,-9 -188,61 -217,80 -31,15 -39,37 -52,76z"/>
      <path class="fil10" d="M3437 4194c-35,-16 -74,-13 -97,22 -44,37 -62,225 -57,224 -4,0 2,180 9,214 5,32 23,48 56,71 26,-30 40,-50 37,-81 -6,-34 -13,-202 -9,-201 -6,-1 16,-164 40,-174 13,-20 7,-34 21,-75z"/>
      <path class="fil10" d="M3472 4495c18,45 32,71 69,94 44,20 224,170 220,174 6,-4 146,180 159,227 17,38 40,54 82,80 14,-45 20,-77 2,-121 -13,-53 -170,-256 -176,-251 4,-5 -191,-169 -238,-188 -40,-23 -71,-22 -118,-15z"/>
      <path class="fil10" d="M3368 5681c-29,26 -186,136 -187,134 1,2 -82,50 -143,84 9,-28 12,-55 6,-90 -8,-40 -35,-199 -49,-285 33,12 77,25 77,24 0,0 95,23 115,22 18,2 30,-13 46,-41 -11,-31 -19,-48 -34,-51 -18,-1 -103,-20 -103,-20 0,0 -83,-26 -98,-34 -6,-3 -12,-2 -18,0 -13,-82 -39,-260 -45,-304 -8,-53 -29,-81 -64,-121 -23,48 -35,81 -28,135 6,57 50,346 50,346 0,0 46,289 59,346 8,41 23,67 47,95 -7,3 -13,6 -17,8 -31,16 -43,38 -58,78 39,14 65,20 99,5 38,-14 209,-117 208,-118 1,1 166,-112 195,-140 28,-24 34,-50 37,-92 -43,-3 -68,-2 -95,19z"/>
      <path class="fil10" d="M2679 5723c-31,-25 -121,-105 -175,-198 -42,-68 -63,-140 -71,-172 35,16 76,34 76,35 -1,-1 104,53 126,63 20,9 39,0 68,-19 -4,-35 -8,-54 -27,-64 -20,-11 -126,-64 -127,-64 1,-1 -104,-50 -132,-58 -3,-33 -4,-73 -2,-115 4,-110 38,-223 55,-256 30,-62 36,-99 74,-159 -71,9 -123,45 -159,121 -22,40 -60,170 -63,290 -7,120 15,229 16,229 1,0 21,112 85,218 63,106 163,195 197,221 63,50 110,61 180,70 -38,-60 -64,-95 -121,-142z"/>
      <path class="fil10" d="M3825 5865c-24,65 -37,110 -29,185 1,84 84,489 92,487 3,-1 16,102 76,210 27,51 55,101 69,141 16,42 9,58 4,78 -20,55 -41,103 -44,172 54,-42 97,-57 132,-142 10,-18 20,-86 -3,-138 -19,-54 -50,-106 -75,-155 -50,-87 -67,-192 -69,-190 -8,2 -87,-392 -89,-473 -10,-74 -29,-114 -64,-175z"/>
      <path class="fil10" d="M4188 6078c-24,69 -38,114 -34,195 2,43 5,174 18,297 10,122 39,233 40,233 -2,-2 29,114 88,221 27,55 60,110 79,154 19,42 17,73 14,91 -12,66 -18,115 -19,188 54,-49 93,-83 112,-175 4,-24 5,-85 -21,-141 -24,-54 -56,-106 -82,-159 -57,-104 -82,-202 -81,-203 -1,0 -27,-101 -37,-219 -12,-117 -15,-248 -19,-292 -4,-80 -23,-126 -58,-190z"/>
      <path class="fil10" d="M2724 6283c-31,-11 -69,70 -85,86 -19,14 -79,113 -76,114 -2,0 -42,106 -43,129 -4,20 10,35 36,55 33,-11 50,-18 55,-35 2,-20 34,-109 36,-109 -2,-1 63,-118 77,-131 12,-12 9,-76 0,-109z"/>
      <path class="fil10" d="M2641 6935c-24,43 -35,75 -25,123 5,56 106,302 108,299 1,1 108,234 122,281 16,43 39,62 78,93 18,-46 25,-79 9,-125 -14,-53 -124,-288 -124,-287 -3,0 -97,-234 -103,-283 -10,-44 -30,-65 -65,-101z"/>
      <path class="fil10" d="M3220 7828c17,-29 26,-59 28,-101 14,-70 -35,-407 -43,-406 6,-2 -90,-326 -124,-385 -25,-58 -55,-83 -104,-116 -5,59 -5,96 18,151 32,58 125,369 119,371 8,-1 53,318 41,383 -1,22 1,40 4,57 -26,-16 -50,-26 -63,-26 -49,-12 -86,7 -110,45 41,20 54,37 85,45 16,4 69,27 101,67 9,10 16,20 21,30 -21,9 -53,23 -84,35 -57,23 -97,15 -103,6 -18,-12 -41,-20 -82,-41 -14,41 -19,80 29,119 27,30 130,33 187,4 62,-24 110,-47 111,-46 78,-52 32,-133 -31,-192z"/>
      <path class="fil10" d="M3145 7182c73,-8 124,-21 190,-73 37,-27 142,-116 218,-218 79,-100 124,-211 122,-211 2,3 48,-117 38,-246 -7,-129 -31,-256 -33,-298 -6,-78 -22,-119 -40,-191 -41,62 -58,115 -52,199 0,46 26,179 31,293 8,117 -28,208 -30,209 1,0 -38,97 -110,188 -70,93 -168,177 -201,202 -62,49 -89,86 -133,146z"/>
      <path class="fil10" d="M3576 6816c38,67 190,226 254,280 64,61 425,349 435,339 5,0 13,17 75,40 46,15 109,20 135,49 42,42 49,66 22,94 -27,30 -68,50 -86,59 -70,33 -109,61 -170,107 75,12 128,14 211,-23 22,-12 67,-29 116,-81 23,-25 47,-74 36,-123 -12,-46 -40,-78 -66,-102 -68,-60 -136,-54 -171,-70 -23,-5 -55,-32 -53,-28 -5,12 -356,-270 -425,-333 -65,-53 -239,-189 -313,-208z"/>
      <path class="fil10" d="M4462 7739c18,114 32,189 84,312 27,72 128,254 196,443 20,47 41,93 71,135 17,21 26,41 63,58 30,15 56,13 79,13 84,-12 121,-33 122,-32 -19,-32 699,-121 840,-130 131,-14 205,-34 313,-74 -113,-20 -189,-31 -322,-19 -144,9 -859,96 -862,136 1,-2 -44,19 -98,26 -30,-2 -34,4 -59,-32 -22,-32 -43,-74 -61,-118 -66,-184 -174,-381 -197,-444 -53,-120 -97,-184 -169,-274z"/>
      <path class="fil10" d="M2853 7792c-210,-15 -356,-19 -606,30 -67,16 -202,42 -362,104 -82,32 -168,88 -232,166 -65,78 -108,170 -144,257 -67,174 -144,331 -235,408 -96,76 -174,128 -172,130 0,0 -4,4 -12,11 1,-2 -15,9 -30,17 -32,18 -80,43 -138,80 -28,27 -64,21 -96,103 -7,72 31,110 59,146 61,70 137,125 217,178 301,219 657,429 775,493 220,122 353,175 552,247 -171,-125 -289,-205 -506,-328 -119,-66 -466,-270 -770,-490 -140,-95 -328,-243 -181,-270 53,-34 101,-59 134,-78 19,-11 28,-15 45,-28 7,-6 11,-9 11,-9 -1,-3 63,-45 173,-132 113,-96 193,-270 261,-442 64,-174 174,-321 324,-372 149,-57 282,-85 347,-100 241,-49 379,-76 586,-121z"/>
      <path class="fil10" d="M2491 10118c-20,-130 -51,-218 -132,-349 -45,-73 -185,-271 -289,-474 -56,-99 -107,-193 -130,-263 -28,-72 -7,-92 -8,-96 -2,1 13,-35 69,-83 56,-49 148,-103 247,-155 100,-52 207,-99 300,-152 86,-51 158,-94 193,-116 130,-85 198,-161 245,-284 -97,89 -169,123 -294,205 -35,21 -105,63 -192,115 -82,47 -194,96 -295,149 -102,53 -199,109 -265,167 -66,55 -97,117 -94,119 1,0 -9,17 -13,46 -4,35 4,74 18,115 28,82 81,179 137,279 104,202 250,411 292,478 80,128 135,191 211,299z"/>
      <path class="fil10" d="M2383 7344c-82,79 -171,158 -298,242 -69,44 -214,131 -408,187 -193,55 -437,96 -659,63 -110,-16 -213,-54 -286,-115 -73,-61 -115,-140 -133,-214 -35,-151 -14,-253 -16,-253 1,1 5,-102 72,-244 65,-142 209,-310 396,-442 69,-51 144,-96 220,-136 -2,7 -3,13 -4,20 -7,42 -13,148 -4,254 11,104 40,194 40,194 -1,0 27,91 72,182 45,93 108,185 130,215 41,54 79,75 137,98 -14,-62 -24,-100 -61,-153 -21,-28 -80,-115 -122,-201 -42,-85 -67,-168 -67,-168 0,0 -26,-83 -35,-176 -9,-92 -3,-203 2,-232 6,-31 5,-54 6,-77 304,-137 613,-187 733,-188 304,-10 483,1 720,116 -205,-167 -408,-220 -726,-209 -172,1 -703,95 -1096,385 -197,138 -353,319 -425,478 -75,158 -80,275 -80,274 2,-1 -23,114 18,287 20,86 73,188 164,262 90,75 211,118 331,136 493,68 993,-160 1131,-265 135,-89 226,-181 300,-275 73,-96 117,-196 215,-286 -116,66 -187,162 -267,241z"/>
      <path class="fil10" d="M5611 9074c-87,73 -302,307 -478,523 -6,8 -13,15 -20,22 -20,-19 -39,-39 -57,-58 -42,-47 -76,-95 -103,-137 -55,-83 -86,-142 -86,-141 -8,6 -107,-244 -310,-474 -98,-106 -195,-221 -261,-326 -67,-105 -97,-201 -109,-249 -30,-146 -31,-245 -18,-366 6,-1 12,-2 19,-4 2,-29 1,-49 -11,-65 1,-5 2,-10 2,-15 -2,3 -4,7 -6,11 -1,-3 -4,-5 -6,-7 -28,-19 -134,-93 -127,-94 0,0 -20,-19 -29,-45 -9,-23 -10,-53 -9,-68 38,22 69,25 118,30 -15,-51 -32,-84 -78,-114 -50,-36 -305,-171 -303,-171 -5,4 -238,-150 -263,-198 -32,-37 -59,-50 -107,-74 -5,52 0,91 37,135 34,61 285,224 286,217 1,2 143,78 234,130 -10,9 -16,20 -17,35 -2,14 -3,65 15,111 17,47 50,76 49,76 -1,9 120,94 139,106 8,5 15,7 23,8 -49,110 -71,221 -38,384 12,54 47,163 120,277 71,113 172,232 271,340 187,208 291,460 298,455 0,0 31,59 89,148 29,44 65,95 111,147 24,25 48,51 76,75l21 19 3 3 0 0c-13,1 120,-5 63,-3l1 0 1 -1 5 -6 9 -10 39 -41c191,-237 379,-419 459,-487 127,-142 545,-507 629,-651 -129,105 -548,404 -681,553z"/>
      <path class="fil10" d="M3012 4507c-9,29 0,49 18,85 37,-13 59,-25 70,-57 17,-32 47,-211 43,-212 7,2 -2,-187 -32,-223 -15,-33 -103,-161 -142,-164 -8,40 54,160 64,185 20,23 23,194 17,196 2,0 -3,37 -12,79 -19,0 -39,4 -50,7 -26,3 -157,45 -156,47 -1,-2 -104,64 -120,82 -16,15 -16,36 -9,69 33,11 52,16 68,3 16,-15 105,-74 106,-73 0,-1 94,-34 143,-49 -3,11 -6,20 -8,25z"/>
      <path class="fil10" d="M3120 2356c4,22 23,280 72,314 49,34 178,0 178,-38 0,-38 -42,-216 -76,-235 -34,-19 -106,-68 -106,-68l-68 27z"/>
      <path class="fil10" d="M3870 1973c-59,78 102,333 170,341 68,8 155,-23 136,-87 -19,-65 -72,-159 -121,-195 -49,-36 -93,-11 -93,-11 0,0 -6,-49 -36,-84 -30,-33 -45,21 -56,36z"/>
      <path class="fil11" d="M3241 2418c-18,13 -38,11 -34,53 4,42 27,72 61,64 34,-7 45,-18 37,-51 -7,-32 -41,-81 -64,-66z"/>
      <path class="fil11" d="M4010 2068c-22,9 -27,36 -19,64 7,29 22,59 52,53 31,-5 52,-4 50,-26 -2,-23 -34,-112 -83,-91z"/>
      <path class="fil10" d="M2773 5282c-9,-115 -64,-263 -90,-347 -8,-25 -25,39 -34,12 -18,127 21,194 32,343 6,81 23,323 41,546 13,109 -1,207 -5,289 -6,80 -5,133 -5,133 2,0 -5,52 16,140 16,39 25,105 114,136 91,11 135,-43 181,-76 43,-37 85,-81 123,-108 45,-32 90,-63 130,-93 80,-59 144,-113 174,-142 82,-77 131,-145 159,-226 38,0 162,-10 203,-21 47,-12 84,-35 84,-34 4,5 56,-39 95,-81 25,24 53,48 84,74 128,106 714,591 836,691 -15,19 -32,42 -53,69l-5 6c-12,-10 -24,-20 -37,-31 -43,-38 -90,-79 -138,-120 -193,-168 -648,-548 -718,-608l-60 45c69,61 523,467 716,633 49,42 96,83 139,120 22,19 43,37 63,54l7 6 4 4 0 0c-60,6 83,-8 68,-7l0 0 1 -1 1 -2 12 -15 21 -28c27,-35 50,-64 65,-85 4,-5 7,-10 11,-14l2 -3 1 -1 0 -1 1 0 0 0 0 0c-15,-128 -4,-36 -8,-64l-4 -4c-5,-4 -8,-6 -8,-6 0,0 -636,-527 -828,-686 -24,-21 -47,-41 -73,-61 -12,-9 -26,-19 -39,-29 0,0 -7,-4 -13,-9 7,-23 -1,-44 -19,-71 -36,12 -55,17 -67,37 -7,28 -99,114 -103,107 2,8 -116,42 -141,29 -19,-3 -51,9 -80,26 1,-5 1,-9 2,-13 -5,7 -10,14 -16,21 0,1 0,1 -1,1 0,0 0,1 0,1 -67,88 -130,136 -226,228 -29,27 -90,78 -168,136 -39,29 -83,60 -128,92 -53,38 -89,78 -130,113 -38,35 -87,63 -100,56 -13,1 -37,-39 -44,-70 -16,-65 -12,-117 -13,-116 0,0 0,-48 5,-125 4,-75 19,-190 5,-304 -17,-221 -34,-465 -42,-546z"/>
      <path class="fil10" d="M2907 3296c-13,35 -21,110 9,133 30,-25 11,-38 37,-95 -2,-12 70,-49 100,-76 4,8 9,16 14,24 5,40 13,72 37,114 30,61 207,369 213,366 1,0 49,76 117,151 64,78 165,142 205,153 71,24 124,6 169,-34 -59,-18 -85,-36 -136,-53 -28,-8 -121,-41 -181,-111 -23,-25 -129,-189 -115,-190 27,-18 167,9 162,20 55,67 120,143 176,211 37,-9 8,-37 16,-75 2,-10 -32,-39 -36,-68 16,11 33,23 50,34 128,87 319,144 494,130 173,-9 343,-60 442,-153 95,-90 124,-170 125,-169 0,-1 42,-74 64,-196 25,-121 26,-290 -10,-460 -77,-345 -312,-648 -403,-733 -165,-164 -302,-257 -482,-310 156,108 261,221 415,374 83,77 308,373 378,689 34,157 33,314 10,423 -20,110 -56,172 -55,172 0,-1 -27,68 -104,140 -75,73 -226,122 -385,129 -333,38 -606,-239 -685,-319 -132,-133 -223,-220 -350,-299 -17,-16 -32,-30 -45,-40 38,-34 85,-82 90,-112 13,-34 -1,-61 -29,-84 -31,23 -49,29 -56,48 2,21 -106,113 -111,113 2,-6 -133,100 -140,153z"/>
     </g>
    </g>
   </g>
  </g>
 </g>
</svg>
