<?xml version="1.0" standalone="no"?>
<!DOCTYPE svg PUBLIC "-//W3C//DTD SVG 20010904//EN"
 "http://www.w3.org/TR/2001/REC-SVG-20010904/DTD/svg10.dtd">
<svg version="1.0" xmlns="http://www.w3.org/2000/svg"
 width="1333.000000pt" height="1333.000000pt" viewBox="0 0 1333.000000 1333.000000"
 preserveAspectRatio="xMidYMid meet">
<metadata>
Created by potrace 1.11, written by Peter Selinger 2001-2013
</metadata>
<g transform="translate(0.000000,1333.000000) scale(0.100000,-0.100000)"
fill="#000000" stroke="none">
<path d="M5890 10219 c-161 -43 -473 -190 -755 -354 -82 -48 -185 -108 -229
-132 -251 -141 -432 -271 -741 -533 -560 -474 -992 -882 -1398 -1320 -357
-386 -477 -543 -715 -939 -214 -356 -332 -605 -462 -973 -13 -35 -17 -37 -139
-79 -308 -105 -513 -243 -840 -563 -188 -185 -280 -294 -387 -456 -102 -157
-127 -207 -160 -317 -98 -336 -73 -682 62 -842 66 -78 225 -127 381 -117 144
9 246 49 513 201 94 54 314 131 412 145 82 12 126 24 181 52 21 10 97 29 170
42 147 27 223 45 312 76 33 12 146 43 250 70 105 27 210 56 235 65 43 15 287
68 395 85 28 4 149 11 270 15 121 3 240 10 265 14 213 40 478 83 590 96 74 9
153 21 175 27 22 7 101 12 180 12 164 -1 243 -16 536 -99 321 -92 503 -108
937 -83 310 17 535 -8 751 -84 104 -36 548 -265 680 -351 155 -100 277 -203
519 -439 231 -226 281 -265 404 -316 48 -20 86 -27 161 -30 90 -4 101 -2 153
23 91 45 172 167 196 294 14 72 -3 375 -26 496 -17 83 -86 326 -123 428 -64
178 -255 495 -379 626 -86 92 -333 311 -403 358 -62 42 -119 105 -141 157 -39
89 -34 252 15 490 13 67 29 166 35 221 6 55 21 163 35 240 13 77 27 172 30
210 11 109 43 267 80 389 43 141 68 200 99 231 24 24 31 25 133 25 104 0 483
-42 668 -74 50 -8 178 -25 285 -36 505 -52 672 -89 950 -207 275 -117 412
-194 508 -286 l42 -41 -2 -396 c-3 -448 -7 -423 83 -648 61 -152 78 -187 140
-279 45 -67 85 -105 272 -261 139 -115 433 -206 707 -219 140 -6 465 25 561
53 98 29 451 184 498 218 114 84 229 229 278 350 14 34 36 79 48 101 37 63 84
190 113 304 25 99 27 120 26 316 -1 304 -41 526 -124 696 -82 167 -143 253
-274 387 -168 171 -401 352 -541 421 -185 90 -211 96 -440 96 -181 0 -207 -3
-275 -24 -105 -32 -232 -100 -320 -171 -89 -72 -199 -130 -247 -130 -64 0
-102 27 -276 202 -165 166 -248 239 -528 469 -70 57 -171 142 -225 187 -55 46
-144 113 -199 150 -55 36 -122 85 -148 109 -27 23 -76 59 -110 79 -34 21 -110
70 -168 111 -59 40 -129 84 -156 97 -27 14 -60 35 -73 46 -14 12 -43 31 -65
42 -21 11 -138 87 -260 168 -121 80 -242 159 -270 175 -27 15 -70 43 -95 61
-25 18 -79 49 -120 69 -41 20 -133 67 -205 106 -359 192 -679 350 -790 389
-66 23 -199 73 -296 111 -187 72 -298 106 -524 163 -188 47 -267 56 -463 55
-134 0 -182 -4 -242 -20z m6315 -2743 c187 -48 391 -169 519 -307 139 -149
246 -347 298 -546 40 -156 50 -375 24 -534 -130 -786 -906 -1223 -1568 -882
-319 164 -552 491 -619 873 -21 120 -17 355 10 477 52 245 154 443 315 611
170 178 370 286 601 327 117 21 294 13 420 -19z m-8075 -1624 c302 -61 447
-104 960 -282 91 -31 201 -71 244 -89 155 -63 230 -76 441 -76 206 1 291 11
460 55 249 66 529 67 791 5 199 -47 467 -143 529 -189 17 -12 50 -32 75 -44
25 -13 79 -52 120 -87 41 -36 116 -98 165 -139 134 -109 325 -310 373 -392 34
-59 157 -287 224 -415 46 -88 94 -351 105 -569 l6 -134 -29 19 c-336 220 -501
318 -779 461 -907 465 -1860 732 -2935 821 -251 20 -866 23 -1110 5 -1179 -89
-2248 -402 -3222 -944 -104 -58 -108 -59 -156 -50 -94 17 -150 85 -173 208 -7
36 -9 128 -6 234 5 203 14 239 117 446 73 148 131 218 369 452 l176 172 130
52 c497 194 1306 416 1605 439 69 5 209 21 312 35 303 41 481 53 753 50 248
-3 251 -3 455 -44z"/>
</g>
</svg>
