<?xml version="1.0" standalone="no"?>
<!DOCTYPE svg PUBLIC "-//W3C//DTD SVG 20010904//EN"
 "http://www.w3.org/TR/2001/REC-SVG-20010904/DTD/svg10.dtd">
<svg version="1.0" xmlns="http://www.w3.org/2000/svg"
 width="1714.000000pt" height="1714.000000pt" viewBox="0 0 1714.000000 1714.000000"
 preserveAspectRatio="xMidYMid meet">
<metadata>
Created by potrace 1.11, written by Peter Selinger 2001-2013
</metadata>
<g transform="translate(0.000000,1714.000000) scale(0.100000,-0.100000)"
fill="#000000" stroke="none">
<path d="M12262 15009 c-100 -12 -288 -47 -377 -71 -22 -5 -49 -12 -60 -14
-25 -5 -95 -26 -260 -77 -71 -23 -132 -42 -135 -42 -3 -1 -12 -5 -20 -8 -56
-25 -179 -64 -184 -59 -3 3 -6 0 -6 -7 0 -8 -7 -11 -15 -7 -8 3 -15 2 -15 -3
0 -5 -21 -16 -47 -26 -27 -10 -72 -28 -101 -41 -29 -13 -54 -24 -56 -24 -2 0
-34 -14 -72 -32 -38 -17 -71 -32 -74 -33 -3 -1 -36 -17 -75 -35 -38 -19 -73
-33 -77 -32 -5 1 -8 -2 -8 -7 0 -5 -21 -18 -47 -30 -27 -11 -84 -41 -128 -66
-44 -25 -96 -53 -115 -63 -19 -9 -44 -25 -54 -34 -11 -10 -24 -18 -29 -18 -6
0 -25 -11 -44 -26 -18 -14 -33 -22 -33 -19 0 3 -6 1 -12 -5 -33 -27 -118 -79
-118 -73 0 5 -4 3 -8 -3 -9 -13 -100 -74 -111 -74 -4 0 -20 -11 -35 -25 -14
-13 -28 -23 -31 -22 -2 1 -12 -5 -22 -13 -10 -9 -22 -16 -28 -18 -5 -1 -18 -9
-28 -17 -9 -8 -20 -15 -23 -15 -3 0 -26 -13 -51 -30 -24 -16 -48 -30 -54 -30
-5 0 -9 -4 -9 -8 0 -5 -12 -15 -27 -23 -34 -17 -121 -73 -148 -94 -10 -8 -25
-15 -32 -15 -7 0 -13 -4 -13 -9 0 -5 -13 -14 -30 -21 -16 -7 -30 -15 -30 -19
0 -3 -13 -12 -28 -19 -16 -6 -39 -22 -52 -35 -14 -12 -27 -22 -30 -21 -5 1
-63 -35 -195 -121 -298 -194 -351 -229 -356 -237 -3 -5 -9 -8 -12 -6 -3 1 -17
-7 -31 -19 -15 -13 -29 -23 -31 -23 -9 0 -240 -163 -243 -172 -2 -4 -9 -8 -16
-8 -7 0 -23 -11 -36 -25 -13 -14 -25 -23 -28 -21 -2 2 -11 -3 -21 -12 -9 -10
-34 -30 -56 -47 -21 -16 -45 -38 -54 -47 -8 -10 -21 -18 -28 -18 -6 0 -17 -8
-22 -17 -6 -10 -11 -13 -11 -8 0 6 -4 5 -8 -1 -11 -18 -311 -204 -328 -204 -8
0 -17 -6 -20 -14 -3 -8 -14 -16 -25 -19 -17 -5 -24 7 -20 35 0 4 -27 21 -62
38 -40 19 -68 40 -79 60 -12 22 -22 28 -39 25 -12 -3 -27 -1 -33 4 -7 6 -32
-3 -68 -24 -31 -18 -59 -31 -62 -28 -3 4 -6 2 -6 -4 0 -10 -36 -26 -52 -24 -5
1 -8 -4 -8 -9 0 -6 -6 -10 -14 -10 -7 0 -20 -7 -27 -17 -8 -9 -26 -21 -40 -27
-63 -27 -138 -81 -144 -103 -3 -13 -10 -23 -16 -23 -6 0 -7 -5 -3 -11 3 -6 0
-15 -7 -20 -8 -5 -9 -9 -3 -9 12 0 11 -52 -1 -89 -4 -14 -1 -23 9 -27 29 -11
17 -29 -43 -67 -51 -33 -58 -41 -54 -65 9 -66 10 -102 2 -102 -5 0 -9 -6 -9
-13 0 -8 -18 -33 -40 -56 -22 -23 -38 -46 -35 -52 4 -5 2 -9 -3 -9 -10 0 -8
-93 2 -109 4 -5 -1 -16 -9 -25 -9 -8 -16 -19 -17 -23 0 -4 -3 -14 -5 -21 -3
-7 1 -27 8 -45 8 -17 13 -35 11 -39 -1 -5 3 -8 9 -8 5 0 8 -4 5 -9 -4 -5 -3
-11 1 -13 11 -5 53 -87 53 -105 0 -8 4 -11 10 -8 5 3 7 0 4 -8 -7 -20 14 -39
93 -83 37 -21 87 -59 110 -85 47 -52 63 -57 193 -66 68 -4 95 -11 135 -34 49
-27 127 -51 171 -51 21 -1 74 38 74 54 0 5 11 21 25 36 14 15 25 32 25 38 0
24 32 23 63 0 46 -34 113 -17 177 44 22 20 51 44 137 112 84 68 129 144 136
230 1 15 6 30 10 34 4 4 2 13 -4 21 -7 8 -8 13 -1 13 5 0 8 8 5 19 -5 18 11
30 52 38 11 2 38 8 60 14 35 10 55 15 90 22 6 2 16 6 23 10 6 5 12 6 12 3 0
-2 15 0 33 5 44 14 166 24 406 34 62 2 116 7 119 9 2 3 12 1 22 -4 10 -5 21
-6 25 -2 10 10 29 9 38 -3 6 -7 10 -6 13 1 3 7 24 10 52 8 26 -2 88 -5 137 -8
105 -6 154 -12 250 -31 11 -2 37 -6 59 -10 21 -3 44 -9 50 -12 6 -4 20 -9 31
-10 20 -3 123 -37 160 -53 96 -42 194 -91 200 -100 4 -6 1 -17 -5 -25 -7 -8
-9 -15 -5 -15 4 0 2 -7 -5 -15 -7 -8 -8 -15 -3 -15 5 0 9 -27 9 -60 0 -33 -3
-60 -7 -60 -4 0 -6 -8 -4 -17 1 -10 -2 -26 -7 -35 -6 -12 -5 -18 2 -18 6 0 8
-5 3 -12 -4 -7 -8 -20 -9 -28 -1 -8 -5 -35 -8 -60 -8 -66 -27 -162 -40 -205
-1 -5 -7 -28 -11 -50 -12 -55 -12 -55 -15 -57 -2 -3 -6 -22 -14 -58 -8 -39
-27 -114 -34 -130 -3 -8 -4 -23 -3 -32 1 -10 -1 -18 -6 -18 -4 0 -9 -17 -11
-38 -2 -37 -9 -77 -13 -77 -2 0 -6 -23 -14 -85 -3 -25 -10 -74 -15 -110 -15
-100 -20 -309 -8 -370 13 -71 14 -85 8 -85 -7 0 -83 -48 -96 -60 -28 -27 -51
-95 -33 -95 6 0 9 -6 6 -12 -2 -7 2 -26 10 -41 8 -15 11 -32 8 -36 -7 -12 -9
-122 -3 -141 3 -8 12 -34 19 -58 18 -63 92 -126 176 -152 36 -11 74 -20 85
-20 14 0 18 -5 14 -17 -40 -129 -78 -354 -92 -555 -3 -45 -7 -84 -9 -86 -1 -2
-20 13 -41 33 -48 44 -134 104 -194 135 -47 24 -150 62 -150 55 0 -3 -12 0
-27 6 -26 10 -208 14 -249 5 -12 -2 -38 -7 -58 -10 -100 -16 -268 -93 -356
-164 -174 -140 -320 -361 -395 -602 -15 -47 -29 -92 -32 -100 -2 -8 -15 26
-28 75 -80 305 -216 536 -403 683 -94 74 -238 142 -332 158 -14 3 -32 7 -40
10 -8 3 -58 7 -110 9 -182 7 -324 -39 -479 -155 -92 -70 -194 -179 -263 -283
-27 -39 -55 -80 -62 -90 -8 -10 -40 -75 -72 -143 -53 -112 -74 -144 -74 -114
0 18 -88 191 -133 260 -91 141 -214 283 -340 393 -33 29 -65 57 -71 62 -69 62
-251 179 -401 257 -293 152 -708 287 -1050 342 -16 3 -70 12 -120 20 -49 8
-114 18 -144 21 -30 4 -61 8 -70 10 -9 1 -50 6 -91 9 -41 4 -88 8 -105 10 -59
8 -302 19 -431 20 -145 2 -344 -11 -444 -29 -14 -2 -68 -11 -120 -20 -52 -9
-111 -20 -130 -25 -19 -5 -46 -11 -60 -14 -41 -8 -270 -73 -340 -96 -712 -240
-1441 -690 -1965 -1214 -165 -166 -189 -191 -284 -313 -162 -204 -261 -367
-327 -540 -86 -228 -79 -447 22 -646 17 -33 97 -156 124 -192 26 -34 234 -239
268 -265 18 -14 43 -33 55 -44 12 -10 63 -46 112 -81 318 -221 733 -416 1223
-575 136 -45 559 -158 647 -174 17 -3 91 -17 165 -31 185 -36 478 -76 660 -91
248 -20 999 -27 1227 -11 168 11 235 17 268 22 17 2 59 7 95 10 36 4 82 11
103 15 36 8 61 -4 41 -19 -5 -3 -36 -42 -69 -86 -141 -188 -411 -476 -575
-615 -36 -30 -67 -58 -70 -61 -33 -38 -479 -369 -499 -369 -5 0 -11 -4 -13 -8
-12 -33 -619 -365 -848 -466 -465 -204 -860 -339 -1393 -476 l-228 -58 -56 25
c-138 63 -261 8 -332 -148 -36 -80 -45 -127 -45 -249 -1 -161 22 -260 95 -406
46 -92 129 -186 202 -229 64 -37 157 -45 212 -19 139 66 216 288 182 524 l-7
45 83 19 c45 10 152 38 237 62 614 174 1058 342 1540 584 190 95 222 113 400
217 134 78 273 169 458 298 63 44 265 202 325 253 468 405 796 794 1061 1263
l73 128 89 47 c120 62 265 160 342 230 l64 57 -7 -84 c-4 -46 -8 -86 -10 -89
-2 -3 -6 -34 -9 -70 -4 -36 -9 -77 -11 -90 -3 -14 -8 -44 -11 -66 -2 -23 -7
-53 -10 -65 -2 -13 -7 -40 -10 -59 -3 -19 -10 -55 -16 -80 -5 -25 -12 -58 -15
-75 -2 -16 -24 -106 -48 -200 -138 -532 -346 -956 -630 -1284 -38 -44 -180
-187 -225 -226 -180 -156 -431 -301 -670 -385 l-109 -38 -62 25 c-75 30 -160
28 -224 -5 -232 -119 -182 -572 95 -852 108 -110 189 -153 295 -158 57 -2 78
2 115 21 51 26 103 95 121 160 25 86 11 283 -23 354 -6 13 -9 24 -7 26 2 2 42
18 89 37 85 33 285 129 370 178 128 73 347 232 439 316 129 119 254 252 334
356 46 60 121 165 142 199 6 9 28 46 51 81 57 90 145 258 189 360 20 47 43 99
50 115 66 147 162 460 211 686 8 41 17 83 20 94 7 33 52 297 58 345 3 25 8 68
11 95 3 28 8 64 10 80 2 17 7 71 11 120 4 50 8 104 10 120 1 17 3 60 3 98 1
65 13 88 26 48 9 -30 136 -154 188 -185 62 -36 161 -72 217 -80 25 -3 56 -9
70 -12 14 -3 82 -7 152 -9 101 -2 142 1 200 16 40 10 77 19 81 19 4 0 6 -17 3
-37 -3 -21 -8 -60 -11 -88 -3 -27 -8 -61 -10 -75 -2 -14 -7 -45 -10 -70 -3
-25 -11 -74 -17 -110 -5 -36 -12 -81 -15 -100 -5 -31 -78 -390 -87 -430 -88
-353 -182 -643 -296 -909 -78 -182 -138 -308 -150 -316 -6 -3 -10 -13 -10 -20
0 -37 -227 -401 -361 -578 l-67 -89 -84 -2 c-96 -3 -147 -24 -196 -80 -157
-179 49 -577 383 -740 292 -143 526 -50 509 201 -7 96 -60 218 -134 307 -22
27 -37 53 -33 60 4 6 39 54 78 106 104 138 255 365 346 520 44 74 84 142 89
150 29 47 230 462 230 476 0 2 9 23 19 47 77 171 218 621 246 786 3 19 8 37
10 41 4 7 7 22 30 150 8 47 17 94 19 105 3 18 7 42 22 150 7 50 13 107 19 165
3 30 8 69 10 85 4 32 15 201 20 306 2 53 11 81 51 164 27 55 50 102 51 104 6
10 11 -7 17 -54 3 -27 7 -60 10 -71 6 -29 16 -92 22 -134 2 -19 9 -60 14 -90
5 -30 12 -77 16 -105 3 -27 7 -57 9 -65 3 -17 15 -91 20 -130 2 -14 9 -63 15
-110 6 -47 13 -100 15 -118 3 -18 7 -54 10 -80 3 -26 8 -69 11 -97 4 -27 8
-66 10 -85 1 -19 6 -64 9 -100 3 -36 8 -76 10 -90 2 -14 6 -72 10 -130 3 -58
8 -121 10 -140 2 -19 6 -89 10 -155 4 -66 9 -156 12 -200 7 -114 13 -1225 7
-1255 -4 -19 -18 -30 -50 -44 -74 -30 -139 -88 -169 -150 -154 -315 487 -605
898 -406 148 71 216 201 171 325 -9 24 -69 101 -104 133 -32 29 -131 84 -190
106 l-46 17 0 537 c0 475 -6 820 -19 1036 -2 37 -7 130 -11 205 -10 206 -14
267 -39 586 -7 85 -14 157 -20 210 -4 38 -7 71 -20 210 -6 59 -8 82 -21 179
-5 39 -3 47 8 40 7 -4 37 -23 67 -42 286 -182 635 -121 910 159 59 60 94 87
77 61 -26 -43 -27 -1246 -1 -1522 2 -25 7 -79 10 -120 3 -41 8 -91 10 -110 3
-19 7 -60 10 -90 3 -30 8 -73 11 -95 3 -22 7 -51 9 -65 81 -598 229 -1061 440
-1378 l46 -69 -35 -64 c-90 -164 -38 -301 140 -371 138 -55 374 -32 544 51
115 57 146 78 214 146 184 182 172 375 -30 466 -85 39 -179 49 -321 34 l-71
-7 -52 74 c-87 122 -206 387 -246 547 -40 159 -64 263 -69 290 -3 19 -7 43
-10 55 -17 76 -60 378 -70 491 -20 238 -23 280 -31 480 -14 334 -8 908 13
1250 3 61 7 129 7 153 0 23 4 42 7 42 4 0 10 -19 14 -42 12 -77 63 -282 121
-488 118 -417 325 -922 527 -1280 104 -187 108 -193 143 -247 19 -29 51 -79
71 -110 57 -90 199 -289 254 -358 9 -11 47 -58 85 -105 38 -47 73 -90 79 -96
5 -6 39 -44 75 -84 263 -297 606 -597 963 -843 l85 -58 -9 -39 c-21 -91 11
-196 73 -244 180 -135 550 -7 760 264 164 212 165 438 2 520 -61 31 -181 37
-269 14 -62 -16 -173 -65 -216 -95 l-26 -18 -118 80 c-452 309 -837 681 -1176
1139 -268 362 -536 873 -699 1335 -17 50 -38 108 -46 130 -35 101 -87 276
-126 430 -11 44 -22 87 -24 95 -2 8 -12 53 -23 100 -10 47 -22 99 -27 115 -6
25 -5 28 7 19 168 -130 257 -188 393 -253 115 -56 259 -109 365 -137 112 -29
323 -70 411 -80 19 -2 44 -6 55 -8 11 -3 56 -8 100 -11 44 -4 96 -8 115 -11
224 -25 941 -25 1101 1 13 2 44 6 69 9 81 10 135 18 160 22 14 2 43 7 65 10
131 19 588 126 657 153 13 6 50 17 83 27 73 21 343 117 388 138 17 8 55 24 82
35 71 28 191 82 252 114 29 15 54 26 56 25 2 -2 10 2 18 8 8 6 55 33 104 59
50 26 97 53 105 59 8 6 31 20 50 30 69 38 297 192 390 265 467 363 779 786
916 1243 27 91 61 263 69 348 6 67 7 327 1 356 -2 12 -7 43 -11 70 -3 27 -7
56 -9 64 -1 8 -6 33 -10 55 -11 56 -75 274 -91 310 -8 17 -26 59 -41 95 -91
222 -263 496 -448 715 -186 218 -410 436 -632 612 l-83 65 35 33 c30 28 40 50
35 78 0 4 3 7 8 7 13 0 -1 80 -19 105 -4 6 -10 18 -13 28 -6 17 -3 18 30 13
83 -14 102 -14 113 -1 7 8 9 22 6 32 -3 10 -8 47 -11 83 -3 36 -7 76 -11 90
-3 14 -6 30 -7 35 -12 51 -56 140 -86 172 -54 59 -94 77 -176 79 -38 2 -73 3
-77 3 -4 1 -6 15 -4 31 2 17 0 30 -3 30 -6 0 -25 76 -36 147 -3 18 -9 42 -14
55 -5 13 -10 28 -11 33 -6 25 -23 65 -55 127 -53 103 -57 111 -95 155 -8 10
-14 20 -12 23 1 3 -5 13 -13 23 -8 9 -15 21 -16 25 0 4 -20 34 -45 67 -25 33
-47 68 -51 78 -3 9 -9 17 -14 17 -5 0 -9 6 -9 14 0 8 -4 16 -8 18 -5 2 -23 26
-42 53 -18 28 -38 53 -44 57 -6 4 -8 8 -4 8 4 0 -15 32 -42 71 -27 40 -47 76
-44 80 3 5 1 9 -3 9 -8 0 -47 57 -48 70 -1 8 -27 54 -34 60 -3 3 -13 19 -21
35 -8 17 -30 54 -48 83 -18 28 -29 52 -25 52 4 0 3 4 -3 8 -10 7 -114 161
-114 169 0 2 -5 9 -10 16 -6 7 -33 44 -60 82 -27 39 -53 75 -57 80 -5 6 -20
26 -33 45 -13 19 -35 46 -47 60 -13 14 -23 28 -23 31 0 3 -8 15 -17 27 -10 11
-34 39 -53 62 -90 108 -113 135 -121 138 -5 2 -9 7 -9 12 0 4 -24 34 -52 66
-65 71 -438 444 -445 444 -9 0 -33 29 -33 39 0 6 -4 11 -10 11 -5 0 -20 11
-34 25 -14 14 -30 25 -36 25 -6 0 -9 3 -7 8 2 4 -7 17 -20 29 -13 12 -23 20
-23 16 0 -3 -9 6 -21 21 -11 14 -24 26 -29 26 -4 0 -23 15 -41 33 -19 17 -58
52 -88 77 -29 25 -58 50 -65 55 -6 6 -32 26 -58 45 -27 18 -48 36 -48 39 0 4
-16 15 -35 25 -19 11 -35 23 -35 28 0 4 -4 8 -9 8 -7 0 -129 77 -157 99 -6 5
-21 12 -35 16 -13 4 -31 13 -39 20 -8 6 -31 18 -50 25 -19 8 -78 34 -130 58
-124 58 -175 78 -252 97 -69 19 -228 25 -326 14z"/>
</g>
</svg>
